# xmcd
#
# Track frame offsets: 
#        150
#        14470
#        27337
#        39746
#        51627
#        62466
#        71946
#        82457
#        95424
#        109595
#        119623
#        130754
#        143851
#        155893
#        165892
#        178926
#        189773
#        200955
#        213438
#        226726
#
# Disc length: 3179 seconds
#
# Revision: 0
# Processed by: cddbd v1.5.2PL0 Copyright (c) Steve Scherf et al.
# Submitted via: ExactAudioCopy v0.99pb4
#
DISCID=2c0c6914
DTITLE=T Texas Tyler - T Texas Tyler Unadulterated Country Songs
DYEAR=2002
DGENRE=Country
TTITLE0=A Colored Child's Funeral =A Negro Funeral
TTITLE1=Baby I Can't Sleep
TTITLE2=Blue Kimono Blues
TTITLE3=Didn't They Crucify My Lord
TTITLE4=Divorce Me C.O.D.
TTITLE5=Get Out Of My Life
TTITLE6=God Put A Rainbow In The Cloud
TTITLE7=Goodnight Waltz
TTITLE8=Guitar Boogie Woogie
TTITLE9=Half Past Three
TTITLE10=Hideaway
TTITLE11=I Dreamed I Searched Heaven (For You)
TTITLE12=If I Could Hear My Mother Pray Again
TTITLE13=If You Had A Heart (To Match Your Pretty Face)
TTITLE14=I Hung My Head And Cried
TTITLE15=I'll Have A New Life
TTITLE16=I Love You Because
TTITLE17=Irma (Is The Name Of My Baby)
TTITLE18=It's A Pity
TTITLE19=Mona Lisa
EXTD=
EXTT0=
EXTT1=
EXTT2=
EXTT3=
EXTT4=
EXTT5=
EXTT6=
EXTT7=
EXTT8=
EXTT9=
EXTT10=
EXTT11=
EXTT12=
EXTT13=
EXTT14=
EXTT15=
EXTT16=
EXTT17=
EXTT18=
EXTT19=
PLAYORDER=
